<svg xmlns="http://www.w3.org/2000/svg" viewBox="0 0 30 20" role="img" aria-label="Community of Madrid">
  <rect width="30" height="20" fill="#C8102E"/>
  <g fill="#FFFFFF">
    <path d="M 6 4.5 L 6.7 6.6 L 8.9 6.6 L 7.1 7.9 L 7.8 10 L 6 8.7 L 4.2 10 L 4.9 7.9 L 3.1 6.6 L 5.3 6.6 Z"/>
    <path d="M 12 4.5 L 12.7 6.6 L 14.9 6.6 L 13.1 7.9 L 13.8 10 L 12 8.7 L 10.2 10 L 10.9 7.9 L 9.1 6.6 L 11.3 6.6 Z"/>
    <path d="M 18 4.5 L 18.7 6.6 L 20.9 6.6 L 19.1 7.9 L 19.8 10 L 18 8.7 L 16.2 10 L 16.9 7.9 L 15.1 6.6 L 17.3 6.6 Z"/>
    <path d="M 24 4.5 L 24.7 6.6 L 26.9 6.6 L 25.1 7.9 L 25.8 10 L 24 8.7 L 22.2 10 L 22.9 7.9 L 21.1 6.6 L 23.3 6.6 Z"/>
    <path d="M 9 11 L 9.7 13.1 L 11.9 13.1 L 10.1 14.4 L 10.8 16.5 L 9 15.2 L 7.2 16.5 L 7.9 14.4 L 6.1 13.1 L 8.3 13.1 Z"/>
    <path d="M 15 11 L 15.7 13.1 L 17.9 13.1 L 16.1 14.4 L 16.8 16.5 L 15 15.2 L 13.2 16.5 L 13.9 14.4 L 12.1 13.1 L 14.3 13.1 Z"/>
    <path d="M 21 11 L 21.7 13.1 L 23.9 13.1 L 22.1 14.4 L 22.8 16.5 L 21 15.2 L 19.2 16.5 L 19.9 14.4 L 18.1 13.1 L 20.3 13.1 Z"/>
  </g>
</svg>
